<?xml version="1.0" encoding="UTF-8" standalone="no"?>
<!-- Created with Inkscape (http://www.inkscape.org/) -->

<svg
   xmlns:dc="http://purl.org/dc/elements/1.1/"
   xmlns:cc="http://creativecommons.org/ns#"
   xmlns:rdf="http://www.w3.org/1999/02/22-rdf-syntax-ns#"
   xmlns:svg="http://www.w3.org/2000/svg"
   xmlns="http://www.w3.org/2000/svg"
   xmlns:sodipodi="http://sodipodi.sourceforge.net/DTD/sodipodi-0.dtd"
   xmlns:inkscape="http://www.inkscape.org/namespaces/inkscape"
   width="130.43718mm"
   height="113.55817mm"
   viewBox="0 0 130.43718 113.55817"
   version="1.1"
   id="svg8"
   inkscape:version="0.92.1 r15371"
   sodipodi:docname="paramountprintlogo1995.svg">
  <defs
     id="defs2" />
  <sodipodi:namedview
     id="base"
     pagecolor="#ffffff"
     bordercolor="#666666"
     borderopacity="1.0"
     inkscape:pageopacity="0.0"
     inkscape:pageshadow="2"
     inkscape:zoom="0.88254089"
     inkscape:cx="203.20179"
     inkscape:cy="159.89854"
     inkscape:document-units="mm"
     inkscape:current-layer="layer1"
     showgrid="false"
     inkscape:window-width="1366"
     inkscape:window-height="705"
     inkscape:window-x="-8"
     inkscape:window-y="-8"
     inkscape:window-maximized="1" />
  <metadata
     id="metadata5">
    <rdf:RDF>
      <cc:Work
         rdf:about="">
        <dc:format>image/svg+xml</dc:format>
        <dc:type
           rdf:resource="http://purl.org/dc/dcmitype/StillImage" />
        <dc:title />
      </cc:Work>
    </rdf:RDF>
  </metadata>
  <g
     inkscape:label="Layer 1"
     inkscape:groupmode="layer"
     id="layer1"
     transform="translate(-8.9110478,-83.312971)"
     style="display:inline">
    <g
       id="g196">
      <g
         id="g1545">
        <path
           d="m 22.201793,190.62239 h 1.996585 l 1.235021,2.41324 1.379191,-2.41324 h 1.895876 l -3.275067,6.1767 -3.231606,-6.1767"
           inkscape:connector-curvature="0"
           id="path16"
           style="fill:#000000;fill-opacity:1;fill-rule:evenodd;stroke:none;stroke-width:0.26458332" />
        <path
           d="m 38.002652,196.54742 h 1.996591 l 1.235015,-2.41316 1.379192,2.41316 h 1.880702 l -3.259894,-6.16176 -3.231606,6.16176"
           inkscape:connector-curvature="0"
           id="path18"
           style="fill:#000000;fill-opacity:1;fill-rule:evenodd;stroke:none;stroke-width:0.26458332" />
        <path
           d="m 115.19632,196.54742 h 1.98226 l 1.23434,-2.41316 1.36622,2.41316 h 1.89534 l -3.26156,-6.16176 -3.2166,6.16176"
           inkscape:connector-curvature="0"
           id="path20"
           style="fill:#000000;fill-opacity:1;fill-rule:evenodd;stroke:none;stroke-width:0.26458332" />
        <path
           d="m 9.0577371,196.54742 h 1.9971449 l 1.235023,-2.41316 1.364017,2.41316 h 1.882157 l -3.246174,-6.16176 -3.2321679,6.16176"
           inkscape:connector-curvature="0"
           id="path22"
           style="fill:#000000;fill-opacity:1;fill-rule:evenodd;stroke:none;stroke-width:0.26458332" />
        <path
           d="m 67.492279,196.87114 1.378888,-2.65736 1.063787,2.33364 h 1.98164 l -2.930762,-6.16176 -1.522146,3.04512 -1.493857,-3.04512 -2.916196,6.16176 h 1.996884 l 1.048542,-2.33364 1.39322,2.65736"
           inkscape:connector-curvature="0"
           id="path24"
           style="fill:#000000;fill-opacity:1;fill-rule:evenodd;stroke:none;stroke-width:0.26458332" />
        <path
           d="m 32.686623,196.54742 h 1.752643 v -5.925 h -1.752643 z"
           inkscape:connector-curvature="0"
           id="path26"
           style="fill:#000000;fill-opacity:1;fill-rule:evenodd;stroke:none;stroke-width:0.26458332" />
        <path
           d="m 57.538391,190.44284 c -1.738064,0 -3.160712,1.40062 -3.160712,3.13869 0,1.73149 1.422648,3.13119 3.160712,3.13119 1.766031,0 3.173508,-1.3997 3.173508,-3.13119 0,-1.73807 -1.407477,-3.13869 -3.173508,-3.13869 z m 0,4.57537 c -0.805254,0 -1.450938,-0.64661 -1.450938,-1.43668 0,-0.79757 0.645684,-1.44386 1.450938,-1.44386 0.803494,0 1.450399,0.6463 1.450399,1.44386 0,0.79007 -0.646905,1.43668 -1.450399,1.43668"
           inkscape:connector-curvature="0"
           id="path28"
           style="fill:#000000;fill-opacity:1;fill-rule:evenodd;stroke:none;stroke-width:0.26458332" />
        <path
           d="m 48.96254,193.58153 c 0,-0.79757 0.660551,-1.44386 1.450323,-1.44386 0.230551,0 0.459883,-0.0425 0.646907,0.0289 v -1.64513 c -0.201965,-0.0494 -0.416356,-0.0787 -0.646907,-0.0787 -1.737981,0 -3.160399,1.40062 -3.160399,3.13867 0,1.7315 1.422418,3.1312 3.160399,3.1312 0.215688,0 0.444942,-0.0429 0.646907,-0.093 v -1.68796 c -0.201965,0.0572 -0.416356,0.0864 -0.646907,0.0864 -0.789772,0 -1.450323,-0.6466 -1.450323,-1.43667"
           inkscape:connector-curvature="0"
           id="path30"
           style="fill:#000000;fill-opacity:1;fill-rule:evenodd;stroke:none;stroke-width:0.26458332" />
        <path
           d="m 101.37772,196.87114 1.37918,-2.65736 1.06204,2.33364 h 1.98302 l -2.91621,-6.16176 -1.53702,3.04512 -1.479823,-3.04512 -2.914674,6.16176 h 1.98149 l 1.049075,-2.33364 1.392922,2.65736"
           inkscape:connector-curvature="0"
           id="path32"
           style="fill:#000000;fill-opacity:1;fill-rule:evenodd;stroke:none;stroke-width:0.26458332" />
        <path
           d="m 90.977733,190.44284 c -1.766494,0 -3.160172,1.40062 -3.160172,3.13869 0,1.73149 1.393678,3.13119 3.160172,3.13119 1.739048,0 3.146448,-1.3997 3.146448,-3.13119 0,-1.73807 -1.4074,-3.13869 -3.146448,-3.13869 z m 0,4.57537 c -0.804335,0 -1.450858,-0.64661 -1.450858,-1.43668 0,-0.79757 0.646523,-1.44386 1.450858,-1.44386 0.789853,0 1.450858,0.6463 1.450858,1.44386 0,0.79007 -0.661005,1.43668 -1.450858,1.43668"
           inkscape:connector-curvature="0"
           id="path34"
           style="fill:#000000;fill-opacity:1;fill-rule:evenodd;stroke:none;stroke-width:0.26458332" />
        <path
           d="m 82.04234,193.58153 c 0,-0.79757 0.648043,-1.44386 1.450857,-1.44386 0.230245,0 0.446771,-0.0425 0.647281,0.0289 v -1.64513 c -0.20051,-0.0494 -0.43152,-0.0787 -0.647281,-0.0787 -1.752772,0 -3.159411,1.40062 -3.159411,3.13867 0,1.7315 1.406639,3.1312 3.159411,3.1312 0.215761,0 0.446771,-0.0429 0.647281,-0.093 v -1.68796 c -0.215763,0.0572 -0.417036,0.0864 -0.647281,0.0864 -0.802814,0 -1.450857,-0.6466 -1.450857,-1.43667"
           inkscape:connector-curvature="0"
           id="path36"
           style="fill:#000000;fill-opacity:1;fill-rule:evenodd;stroke:none;stroke-width:0.26458332" />
        <path
           d="m 111.18835,190.60814 h -2.39853 v 5.96879 h 1.75277 v -1.89648 h 1.10549 c 1.19241,0 1.93881,-0.74694 1.93881,-1.93972 0,-1.44316 -1.01935,-2.13259 -2.39854,-2.13259 z m -0.34461,2.70798 h -0.28743 v -1.34373 h 0.27372 c 0.45973,0 1.03383,0.0366 1.03383,0.65399 0,0.60313 -0.5459,0.68974 -1.02012,0.68974"
           inkscape:connector-curvature="0"
           id="path38"
           style="fill:#000000;fill-opacity:1;fill-rule:evenodd;stroke:none;stroke-width:0.26458332" />
        <path
           d="m 134.5744,190.62239 1.13369,2.04751 1.06355,-2.04751 h 1.95406 l -2.12636,4.07202 v 1.85301 h -1.76574 v -1.85301 l -2.27119,-4.07202 h 2.01199"
           inkscape:connector-curvature="0"
           id="path40"
           style="fill:#000000;fill-opacity:1;fill-rule:evenodd;stroke:none;stroke-width:0.26458332" />
        <path
           d="m 124.24608,190.56491 2.52737,1.839 1.06432,0.76096 v -2.54248 h 1.75277 v 6.0763 l -3.549,-2.48491 -0.0145,2.33364 h -1.781 v -5.98251"
           inkscape:connector-curvature="0"
           id="path42"
           style="fill:#000000;fill-opacity:1;fill-rule:evenodd;stroke:none;stroke-width:0.26458332" />
        <path
           d="M 8.9110478,181.70106 H 139.34822 v -1.05953 H 8.9110478 Z"
           inkscape:connector-curvature="0"
           id="path44"
           style="fill:#000000;fill-opacity:1;fill-rule:evenodd;stroke:none;stroke-width:0.26458332" />
        <path
           id="path227"
           d="m 57.321381,120.62172 c -0.06182,0.021 -0.125219,0.0322 -0.185323,0.0402 0.06024,-0.009 0.123635,-0.0194 0.185323,-0.0402"
           inkscape:connector-curvature="0"
           style="stroke-width:0.13180651" />
        <path
           id="path229"
           d="m 61.591648,119.39118 c -0.0659,0 -0.135496,-0.0167 -0.195998,-0.0476 0.0605,0.0308 0.132861,0.0476 0.195998,0.0476"
           inkscape:connector-curvature="0"
           style="stroke-width:0.13180651" />
        <path
           id="path231"
           d="m 62.006705,113.83092 c 0.496518,0.0225 0.981826,0.13392 1.398468,0.35404 -0.417299,-0.22025 -0.90195,-0.33216 -1.398468,-0.35404"
           inkscape:connector-curvature="0"
           style="stroke-width:0.13180651" />
        <path
           id="path233"
           d="m 59.553391,119.18807 c -0.677088,0.68697 -1.331245,1.24307 -2.233594,1.43352 0.905248,-0.19045 1.556506,-0.74642 2.233594,-1.43352"
           inkscape:connector-curvature="0"
           style="stroke-width:0.13180651" />
        <path
           id="path235"
           d="m 42.170748,125.53231 c -0.671289,0 -3.258785,-0.14486 -3.258785,-2.15345 0,2.00859 2.585254,2.15345 3.258785,2.15345"
           inkscape:connector-curvature="0"
           style="stroke-width:0.13180651" />
        <path
           id="path237"
           d="m 39.410722,122.52857 c -0.613691,0.38105 -0.498759,0.85239 -0.498759,0.85239 0,0 -0.114932,-0.47147 0.502052,-0.85239 0.302103,-0.17543 0.479774,-0.51075 0.479774,-0.87243 -9.96e-4,0.36181 -0.177671,0.69713 -0.483067,0.87243"
           inkscape:connector-curvature="0"
           style="stroke-width:0.13180651" />
        <path
           id="path239"
           d="m 39.894716,121.65628 c 0,-0.59208 -0.479779,-1.06895 -1.06513,-1.06895 0.582715,-1.4e-4 1.06513,0.47687 1.06513,1.06895"
           inkscape:connector-curvature="0"
           style="stroke-width:0.13180651" />
        <path
           id="path241"
           d="m 61.518627,114.33864 c -0.711491,0 -1.496004,0.72309 -1.993836,1.31451 -0.591418,0.71122 -1.559405,2.07872 -1.709662,3.07188 0.150257,-0.99237 1.118244,-2.36066 1.716118,-3.07188 0.491376,-0.59142 1.275889,-1.31451 1.98738,-1.31451"
           inkscape:connector-curvature="0"
           style="stroke-width:0.13180651" />
        <path
           transform="matrix(0.13180651,0,0,0.13180651,8.4973486,83.312971)"
           d="m 181.25,169.243 -13.804,16.06 21.04,-4.71 11.048,18.335 1.628,-21.042 20.693,-4.856 -19.785,-8.252 1.409,-21.382 -13.894,16.196 -19.192,-8.266 z"
           id="polygon245"
           inkscape:connector-curvature="0" />
        <path
           transform="matrix(0.13180651,0,0,0.13180651,8.4973486,83.312971)"
           d="m 354.204,43.567 20.173,7.522 -0.717,21.504 12.878,-16.914 19.993,7.278 -12.183,-17.723 12.861,-17.114 -20.441,5.872 -11.602,-17.298 -0.576,20.938 z"
           id="polygon247"
           inkscape:connector-curvature="0" />
        <path
           transform="matrix(0.13180651,0,0,0.13180651,8.4973486,83.312971)"
           d="m 302.087,68.862 -18.874,9.834 21.272,3.43 3.386,21.211 9.412,-19.021 20.962,3.313 -15.32,-15.036 9.38,-19.324 -18.977,9.761 -14.695,-14.766 z"
           id="polygon249"
           inkscape:connector-curvature="0" />
        <path
           transform="matrix(0.13180651,0,0,0.13180651,8.4973486,83.312971)"
           d="m 236.768,113.345 -16.595,13.127 21.56,-0.537 7.398,20.139 5.559,-20.469 21.255,-0.72 -17.923,-11.872 5.54,-20.777 -16.702,13.174 -17.324,-11.677 z"
           id="polygon251"
           inkscape:connector-curvature="0" />
        <path
           transform="matrix(0.13180651,0,0,0.13180651,8.4973486,83.312971)"
           d="m 123.154,219.17 14.097,15.505 -10.479,18.46 19.737,-8.748 14.37,16.006 -2.437,-21.05 19.371,-8.655 -21.011,-4.287 -2.688,-21.318 -10.596,18.528 z"
           id="polygon253"
           inkscape:connector-curvature="0" />
        <path
           transform="matrix(0.13180651,0,0,0.13180651,8.4973486,83.312971)"
           d="m 89.553,294.805 16.768,12.461 -6.782,20.153 17.771,-12.226 17.182,12.851 -6.509,-20.192 17.535,-12.159 -21.531,-0.229 -6.677,-20.366 -6.885,20.185 z"
           id="polygon255"
           inkscape:connector-curvature="0" />
        <path
           transform="matrix(0.13180651,0,0,0.13180651,8.4973486,83.312971)"
           d="m 68.479,458.749 20.227,5.288 1.216,21.182 11.89,-17.979 20.734,5.586 -13.537,-16.377 11.611,-17.812 -20.056,7.846 -13.826,-16.401 1.194,21.309 z"
           id="polygon257"
           inkscape:connector-curvature="0" />
        <path
           transform="matrix(0.13180651,0,0,0.13180651,8.4973486,83.312971)"
           d="m 108.022,562.621 8.208,-20.01 21.543,1.568 -16.452,-13.452 7.956,-19.668 -18.134,11.479 -16.722,-13.462 5.269,20.674 -17.778,11.021 20.918,1.337 z"
           id="polygon259"
           inkscape:connector-curvature="0" />
        <path
           id="path261"
           d="m 89.112977,160.81863 c -0.342434,-1.38173 0.948613,-0.40808 0.128776,-2.6194 -0.379075,-1.01873 -1.108888,-2.03561 -1.510505,-2.44632 -0.424811,-0.40413 -0.822473,-2.1611 -1.148821,-2.94377 -0.33018,-0.77107 -0.164101,-0.80837 -0.855297,-2.65867 -0.514835,-1.34311 0.942157,-0.89655 0.113881,-2.98173 -0.531574,-1.35088 -3.21542,-6.24789 -3.51844,-6.7448 -0.159617,-0.2735 -0.680256,-1.11601 -1.318726,-2.12261 -0.599852,-0.95573 -1.102427,-1.97183 -1.382386,-2.41562 -0.56255,-0.89391 -1.59354,-2.86139 -2.161758,-3.67358 -0.579288,-0.82313 -1.291043,-2.62453 -1.596046,-2.32362 -0.278639,0.26322 0.865574,2.97303 1.34891,4.69653 0.50139,1.7123 0.124821,2.4085 -0.164101,2.90344 -0.283122,0.48202 -0.283122,0.79993 0,1.67012 0.263879,0.77423 1.231866,5.30956 1.517619,6.25053 0.281938,0.9461 0.583772,0.99118 0.739434,1.3547 0.576657,1.41402 1.37593,1.47386 1.796263,1.59025 1.168728,0.35206 1.265342,1.9249 2.010574,3.31902 0.691854,1.31609 1.34772,2.48943 1.958382,3.91689 0.614613,1.43195 3.757933,9.1769 4.292017,10.35789 0.191779,0.42283 1.682377,0.42283 1.517619,0 -0.379867,-0.85451 -1.235817,-2.99702 -1.767395,-5.12925"
           inkscape:connector-curvature="0"
           style="stroke-width:0.13180651" />
        <path
           transform="matrix(0.13180651,0,0,0.13180651,8.4973486,83.312971)"
           d="m 794.063,140.339 1.381,21.563 -19.917,8.061 20.625,4.922 1.47,21.114 11.25,-18.301 20.884,4.831 -13.76,-16.325 11.118,-17.637 -19.345,7.942 z"
           id="polygon265"
           inkscape:connector-curvature="0" />
        <path
           transform="matrix(0.13180651,0,0,0.13180651,8.4973486,83.312971)"
           d="m 881.548,271.362 -6.826,20.457 -21.421,0.044 17.304,12.307 -6.582,20.173 17.203,-12.771 17.724,12.317 -6.758,-20.305 16.91,-12.197 -20.884,0.151 z"
           id="polygon267"
           inkscape:connector-curvature="0" />
        <path
           transform="matrix(0.13180651,0,0,0.13180651,8.4973486,83.312971)"
           d="m 841.304,223.015 -21.035,4.097 19.262,8.847 -2.646,21.026 14.629,-15.791 19.58,8.694 -10.484,-18.68 14.366,-15.078 -20.503,4.056 -10.459,-18.57 z"
           id="polygon269"
           inkscape:connector-curvature="0" />
        <path
           transform="matrix(0.13180651,0,0,0.13180651,8.4973486,83.312971)"
           d="m 928.33,372.156 -20.62,-3.787 -2.666,-21.062 -10.606,18.836 -21.069,-4.131 14.6,15.437 -10.249,18.462 19.384,-9.197 14.888,15.408 -2.627,-21.192 z"
           id="polygon271"
           inkscape:connector-curvature="0" />
        <path
           transform="matrix(0.13180651,0,0,0.13180651,8.4973486,83.312971)"
           d="m 891.064,452.504 -13.667,16.269 20.821,-5.332 11.719,17.989 1.391,-21.25 20.191,-4.991 -19.39,-7.714 1.455,-21.226 -14.063,16.533 -19.892,-8.061 z"
           id="polygon273"
           inkscape:connector-curvature="0" />
        <path
           transform="matrix(0.13180651,0,0,0.13180651,8.4973486,83.312971)"
           d="m 166.187,611.112 -18.633,-10.107 4.016,-20.801 -15.593,14.688 -18.963,-9.971 9.138,19.282 -15.356,14.224 20.735,-2.647 9.099,19.082 4.282,-21.162 z"
           id="polygon275"
           inkscape:connector-curvature="0" />
        <path
           transform="matrix(0.13180651,0,0,0.13180651,8.4973486,83.312971)"
           d="m 510.142,17.117 15.942,14.475 -8.76,19.673 18.311,-10.767 15.732,14.104 -4.575,-20.93 18.306,-11.05 L 543.862,20.449 539.6,0 531.211,19.199 Z"
           id="polygon277"
           inkscape:connector-curvature="0" />
        <path
           transform="matrix(0.13180651,0,0,0.13180651,8.4973486,83.312971)"
           d="m 738.921,110.542 -18.027,11.746 21.147,0.905 5.522,20.506 7.588,-20.074 21.407,0.618 -16.617,-13.327 7.583,-19.437 -17.485,11.507 -16.621,-13.306 z"
           id="polygon279"
           inkscape:connector-curvature="0" />
        <path
           transform="matrix(0.13180651,0,0,0.13180651,8.4973486,83.312971)"
           d="m 589.014,26.733 12.895,17.33 -12.378,17.656 20.039,-7.139 12.754,17.022 -0.552,-21.582 20.21,-7.3 -20.468,-6.167 -0.347,-20.894 -11.87,17.224 z"
           id="polygon281"
           inkscape:connector-curvature="0" />
        <path
           transform="matrix(0.13180651,0,0,0.13180651,8.4973486,83.312971)"
           d="m 430.894,22.776 18.4,11.184 -4.836,20.947 15.911,-14.104 18.195,10.962 -8.542,-19.741 15.903,-14.387 -21.208,1.958 -8.062,-19.243 -4.641,20.385 z"
           id="polygon283"
           inkscape:connector-curvature="0" />
        <path
           transform="matrix(0.13180651,0,0,0.13180651,8.4973486,83.312971)"
           d="m 673.574,70.796 -15.405,14.968 20.947,-3.225 9.258,18.999 3.638,-21.084 21.191,-3.408 -18.857,-9.983 3.662,-20.535 -14.946,14.685 -18.848,-9.838 z"
           id="polygon285"
           inkscape:connector-curvature="0" />
        <path
           transform="matrix(0.13180651,0,0,0.13180651,8.4973486,83.312971)"
           d="m 71.072,375.725 18.85,9.099 -2.842,21.098 15.081,-15.578 19.321,9.566 -10.115,-18.709 14.712,-15.227 -21.101,3.877 -10.464,-18.738 -2.825,21.075 z"
           id="polygon287"
           inkscape:connector-curvature="0" />
        <path
           inkscape:connector-curvature="0"
           d="m 85.119506,120.40477 c 0.68605,0.3456 1.553602,-1.17321 2.302132,-2.57563 0.744046,-1.40558 1.341263,-3.14688 0.71439,-3.35988 -0.71439,-0.28602 -1.614104,1.07897 -2.368432,2.48007 -0.735612,1.39755 -1.304489,3.14425 -0.64809,3.45544"
           id="path289"
           style="stroke-width:0.13180651" />
        <path
           inkscape:connector-curvature="0"
           d="m 106.60699,155.53806 c -0.17187,-0.30184 -1.48479,-2.17784 -1.95653,-2.79575 -0.82247,-1.05933 -0.065,-1.44684 -0.49625,-2.10073 -0.17768,-0.28641 -1.23121,-1.5569 -2.46359,-2.81697 -0.62885,-0.63267 -1.33415,-1.23832 -1.939804,-1.7782 -0.97115,-0.86505 -1.708078,-1.51366 -1.825914,-1.39728 -0.171215,0.16541 0.409916,0.86109 0.646774,1.16688 0.241995,0.30448 0.639128,0.86109 1.146191,1.47321 0.840523,0.99303 0.0605,1.73892 0.860433,2.53252 0.13128,0.13062 2.32783,2.58789 2.86139,3.04421 0.80968,0.70793 3.66527,4.10287 3.86733,4.29082 0.33466,0.31344 0.92423,0.99818 1.01623,0.88113 0.11138,-0.12231 -0.18216,-0.49045 -0.34046,-0.77357 -0.1633,-0.28984 -1.18981,-1.41481 -1.3758,-1.72627"
           id="path291"
           style="stroke-width:0.13180651" />
        <path
           inkscape:connector-curvature="0"
           d="m 103.70699,159.87265 c -0.2793,-0.76646 -1.54464,-2.69215 -1.95653,-3.30874 -0.40413,-0.6075 -1.06777,-1.95904 -1.801404,-2.82013 -0.664832,-0.76066 -0.12614,-0.96983 -0.819971,-1.63796 -0.417035,-0.38738 -1.711904,-1.54714 -2.00926,-1.79046 -0.274813,-0.24516 -1.336779,-1.18481 -1.956533,-1.71836 -0.596554,-0.50904 -2.040235,-1.5163 -1.993836,-2.1644 0.02964,-0.6564 -0.294063,-1.91396 -0.785833,-2.33429 -0.356537,-0.29604 -1.39214,-1.96167 -2.584591,-2.93797 -0.599852,-0.50785 -1.870206,-1.82525 -2.85941,-2.98106 -0.927392,-1.10059 -1.623729,-2.10113 -1.833561,-1.96471 -0.307638,0.20272 1.078042,2.14488 1.223427,2.37278 0.149335,0.22262 1.735761,2.98238 1.899199,3.70903 0.163438,0.74076 3.147146,5.7672 3.784296,7.32858 0.370775,0.89905 2.412853,2.12775 3.272624,3.55008 0.785175,1.31292 1.002654,1.05102 1.330323,1.06828 0.745895,0.0251 2.408236,1.80971 2.744214,2.30214 0.314094,0.49691 3.005586,3.16902 3.694796,3.82028 0.29736,0.28576 2.41667,3.71734 2.69663,3.47468 0.2884,-0.24582 -0.81416,-1.91857 -0.98209,-2.28091 -0.15764,-0.36946 -0.76843,-0.90564 -1.06249,-1.68686"
           id="path295"
           style="stroke-width:0.13180651" />
        <path
           inkscape:connector-curvature="0"
           d="m 78.80729,115.09455 c -0.155138,-0.0743 -0.411236,0.0567 -0.588254,0.15158 -0.401612,0.27548 -0.749716,0.65073 -1.027827,1.11535 -0.281932,0.47147 -0.536057,0.93384 -0.735612,1.43748 l -1.259539,2.75291 h -1.645344 c 0.160539,-0.3655 0.469497,-1.08543 0.65745,-1.45066 0,-0.0355 -0.03283,-0.0643 -0.03283,-0.0355 -0.902349,0.74918 -2.052356,1.71743 -2.894865,1.5569 -0.280223,-0.0355 -0.523274,-0.27772 -0.591154,-0.52908 -0.05694,-0.31343 -0.03477,-0.59629 0.03308,-0.86214 0,-0.0451 -0.03308,-0.0451 -0.06788,0 -0.716632,0.67669 -1.364985,1.24122 -2.267992,1.46186 -0.522217,0.11718 -0.996855,-0.22077 -1.173605,-0.59985 -0.227233,-0.43694 -0.287078,-1.11693 0.08976,-1.89894 0.220379,-0.49875 0.463036,-1.02229 0.773966,-1.45804 -0.187953,0.0956 -0.553453,0.12231 -0.80547,0.0956 -0.215636,-0.0337 -0.436937,-0.19375 -0.556352,-0.3514 -0.130625,-0.15065 -0.158039,-0.42771 -0.158039,-0.61329 0.0274,-0.0351 -0.06247,-0.0351 -0.125478,0 -0.496253,0.40069 -0.716896,0.86913 -0.962188,1.3924 l -1.438799,3.23664 h -1.669724 l 0.616192,-1.36538 c 0.03218,-0.0306 0,-0.0654 -0.03373,-0.0306 -0.869131,0.77292 -1.922399,1.64983 -2.767807,1.48665 -0.245816,-0.0355 -0.496513,-0.28154 -0.553453,-0.51905 -0.06854,-0.288 -0.03547,-0.6017 0,-0.88297 h -0.06854 c -0.674851,0.68763 -1.328744,1.2482 -2.231357,1.43642 -0.06248,0.0199 -0.125871,0.0322 -0.185318,0.0377 -0.42771,0.0418 -0.808633,-0.24226 -0.973128,-0.62648 -0.248455,-0.62463 -0.154476,-1.26982 0.06854,-1.86901 0.07921,-0.20878 0.16858,-0.41163 0.264138,-0.60855 0.680913,-1.37185 1.771215,-2.39678 3.1826,-3.18669 0.63979,-0.36787 1.502066,-0.57758 2.32981,-0.53935 0.493618,0.0226 0.97919,0.13326 1.39913,0.35403 -0.773971,1.74446 -1.333886,2.98911 -2.049855,4.63194 -0.05958,0.1616 -0.120078,0.43444 0.03771,0.52841 0.06208,0.0308 0.130619,0.0476 0.196258,0.0476 0.0659,0 0.122578,-0.0167 0.16568,-0.0476 0.796378,-0.37709 1.512483,-1.23634 2.097833,-2.25837 0.08528,-0.14604 0.166736,-0.29445 0.242921,-0.44669 l 1.122463,-2.47849 h 1.57588 l -0.430874,0.93451 c -0.03059,0.0567 -0.03059,0.0808 0,0.0567 0.493349,-0.37644 1.025186,-0.93069 1.653643,-1.27813 0.245556,-0.12074 0.83407,-0.12074 0.771331,0.28707 -0.03258,0.36497 -0.314358,0.64783 -0.463036,0.99119 -0.09042,0.21748 -0.185716,0.50363 -0.156718,0.64875 0.0663,0.16028 0.248456,0.25386 0.493349,0.0685 0.248456,-0.15764 0.439577,-0.28312 0.660619,-0.46883 0.399634,-0.37882 0.896544,-0.74406 1.455143,-1.02981 1.125363,-0.52907 2.647989,-0.86333 3.762018,-0.14934 -0.778714,1.74024 -1.362086,3.04091 -2.108374,4.69469 -0.131018,0.27218 -0.03373,0.36839 0.06023,0.42929 0.09424,0.0659 0.288393,0.0962 0.536719,-0.0371 0.610792,-0.26928 1.69938,-1.47636 2.133816,-2.41918 0.408731,-0.86979 0.779371,-1.73576 1.216966,-2.72721 h 1.627679 l -0.454996,0.95889 c 0,0 0.03995,0.0326 0.06498,0.0326 0.437599,-0.40253 1.565861,-1.31068 2.405735,-1.12246 0.464615,0.0971 0.681571,0.65389 0.64809,1.0654 0.534213,-0.38514 1.081867,-0.84858 1.858738,-1.03679 1.124964,-0.27733 1.565199,0.50521 1.218943,1.25149 -0.438914,1.02203 -1.305803,3.03802 -1.804563,4.07718 -0.05984,0.11164 -0.05984,0.3369 0,0.3945 0.124821,0.0933 0.344941,0 0.438257,-0.0576 0.558599,-0.47372 0.866232,-0.77911 1.302645,-1.40532 0.120338,-1.08504 0.711756,-2.07846 1.528559,-2.91807 0.863068,-0.97089 2.236493,-1.71125 3.547443,-1.27365 0.459478,0.15066 0.773572,0.62174 0.893252,1.08793 0.06564,0.2478 0.125478,0.37038 0.125478,0.65324 0.684734,0.49401 1.584448,-0.31924 1.957196,-0.93451 0.09846,-0.2507 0.215636,-0.53092 0.284438,-0.71347 0.397133,0.0264 1.173869,0 1.62188,0 l -2.02402,4.63155 c -0.132597,0.28127 -0.162781,0.43114 -0.162781,0.64611 0,0.16054 0.185318,0.19376 0.379075,0.16054 0.560572,-0.0862 1.465426,-1.1852 1.928855,-2.11931 0.518791,-1.14817 1.021371,-2.10772 1.521445,-3.26168 h 1.644945 c -0.65073,1.55584 -1.390163,3.20118 -1.930175,4.41564 -0.124163,0.25031 -0.271655,0.49401 -0.186638,0.84475 0.06248,0.15382 0.283118,0.11968 0.40873,0.0631 0.714391,-0.41388 1.93716,-1.77082 2.361971,-2.61227 0.439577,-0.99686 0.773573,-1.74156 1.237007,-2.71114 h 1.690029 l -0.40807,0.96865 c 0.62555,-0.49849 1.30778,-1.02585 2.11615,-1.15172 0.37393,-0.0659 0.83671,-0.036 1.05353,0.33439 0.25359,0.43931 0.0965,0.90551 -0.0888,1.31319 -0.46594,1.05709 -1.00015,2.20684 -1.46872,3.23493 -0.083,0.25544 -0.11256,0.48913 0.0695,0.59405 0.24846,0.15184 1.43063,-0.5702 2.02284,-1.87548 0.52327,-1.14527 0.86886,-1.82842 1.33216,-2.94798 h -0.86557 l 0.24002,-0.50232 h 0.87401 l 1.24531,-2.70203 h 1.67328 l -1.20221,2.70203 h 1.26468 l -0.24581,0.50232 h -1.23885 c -0.7169,1.52012 -1.31029,2.79021 -1.93532,4.22927 -0.24582,0.48914 -0.49559,1.30489 -0.36615,1.80589 0.0933,0.27574 0.43693,0.33847 0.74721,0.24002 0.96218,-0.32978 1.61344,-1.14909 2.17731,-2.02218 0.0251,-0.0873 0.52578,-0.0239 0.49625,0.0357 -0.65639,1.30871 -2.08202,2.61939 -3.44964,2.58275 -0.41123,0 -0.85081,-0.24582 -1.09017,-0.59629 -0.12034,-0.17768 -0.19244,-0.32978 -0.24846,-0.5499 -0.092,-0.35298 -0.0695,-0.75011 0,-1.12985 -0.74787,0.56479 -1.45382,1.24373 -2.38833,1.43973 -0.40992,0.0625 -0.932535,-0.0898 -1.032971,-0.53672 -0.05984,-0.33822 -0.03412,-0.70833 0.100436,-1.01491 0.585615,-1.28235 1.110215,-2.43302 1.673285,-3.7698 0.0348,-0.0625 0,-0.28708 -0.0688,-0.3108 -0.0888,-0.0879 -0.3655,-0.0879 -0.61527,0.0946 -1.14949,0.87045 -1.73511,1.98672 -2.234522,3.13423 -0.348233,0.77686 -0.724672,1.55808 -1.094785,2.31373 h -1.650221 c 0.185981,-0.46923 0.471739,-1.09308 0.682892,-1.59289 0,-0.0348 -0.03148,-0.0348 -0.03148,0 -0.674452,0.6796 -1.556236,1.45001 -2.42181,1.68133 -0.343092,0.0882 -0.68869,-0.0322 -0.863068,-0.3485 -0.198898,-0.3137 -0.252939,-0.77686 -0.07592,-1.1852 0,-0.0167 -0.02252,-0.0167 -0.05404,0 -0.623052,0.62529 -1.216443,1.1852 -2.04722,1.46832 -0.946107,0.28128 -1.782683,-0.37235 -1.191927,-1.74063 0.156459,-0.37104 0.625557,-1.40691 1.148168,-2.64681 -0.431138,0.18374 -0.956389,0.18374 -1.237664,0.0942 -0.03348,0 -0.03348,0 -0.03348,0.0319 -0.375254,1.73826 -1.400445,3.32481 -2.986208,4.07519 -0.77423,0.37196 -1.648901,0.46725 -2.422473,-0.0583 -0.373276,-0.24806 -0.593391,-0.85055 -0.623047,-1.37211 -0.807712,0.80705 -1.710061,1.82908 -2.955367,1.64956 -0.187958,-0.0331 -0.342434,-0.19916 -0.436942,-0.37104 -0.281932,-0.47147 -0.110054,-0.97048 0.05984,-1.37882 0.590756,-1.23635 1.094123,-2.39835 1.679742,-3.7868 0.09911,-0.19442 -0.174383,-0.34652 -0.362336,-0.24846 -0.528415,0.28062 -0.940309,0.58245 -1.283272,1.15014 -0.204696,0.24582 -0.375911,0.48624 -0.490449,0.7977 -0.539355,1.25045 -1.120486,2.42985 -1.623066,3.6372 h -1.68449 c 0.756834,-1.69978 1.468062,-3.34604 2.210135,-5.02894 0.07197,-0.15198 0.03666,-0.36959 -0.05602,-0.42587 m -36.63852,10.84767 c -4.636424,-0.0418 -4.567886,-3.79431 -4.403128,-4.28595 0.189802,-0.5644 0.476875,-1.06869 1.06223,-1.06869 0.585351,0 1.064866,0.47727 1.064866,1.06869 0,0.35944 -0.177019,0.69699 -0.479515,0.87401 -0.616591,0.37749 -0.502047,0.84791 -0.502047,0.84791 0,2.00794 2.585911,2.15543 3.257201,2.15543 6.922738,0 6.125971,-11.39019 12.217539,-15.25976 0.283123,-0.18506 0.499153,0 0.329781,0.19665 -1.901835,2.38227 -2.623608,6.22575 -2.623608,6.22575 2.944422,0 4.879609,-2.79535 4.879609,-4.74649 0,-3.3322 -3.002951,-4.71972 -5.550903,-4.71972 -7.125457,0 -10.212365,4.97266 -10.212365,7.68221 0,2.71534 1.713876,3.69454 2.953125,3.69454 1.719282,0 2.261536,-1.15595 2.050512,-1.71836 -0.341772,-0.88588 0.137738,-1.62215 0.666148,-1.62215 0.210102,0 0.918036,-0.0351 0.918036,1.21605 0,1.20313 -1.713224,2.41667 -3.588038,2.41667 -1.869279,0 -4.583573,-1.01689 -4.583573,-3.98675 0,-6.03621 7.412799,-8.32187 11.79629,-8.10439 4.837165,0.22842 7.678651,2.59817 7.678651,5.14257 -0.0055,4.54732 -7.215616,5.32405 -7.215616,5.32405 -1.250318,6.29838 -6.250134,8.70477 -9.715195,8.66773 m 36.442128,-0.96759 c 0.191122,0.20048 1.747359,1.57127 1.999635,1.83686 0.278639,0.30539 1.955218,1.62992 2.858224,1.62992 0.895893,0 1.558748,0.98828 2.041421,1.47122 1.068951,0.97959 5.501998,5.63143 6.953321,6.62881 0.659692,0.44406 1.267849,0.36234 1.756321,0.73878 0.494933,0.3597 0.73759,0.60565 1.023348,0.68869 0.278639,0.085 1.224747,-0.16028 2.332315,1.22474 0.511014,0.34824 0.651258,0.40873 0.651258,0.40873 0,0 1.498903,1.36183 2.038909,2.32652 0.47688,0.83671 11.7114,15.73823 15.72926,21.0698 3.7263,-6.7589 5.85406,-14.52192 5.85406,-22.78684 0,-26.11759 -21.18368,-47.285191 -47.303642,-47.285191 -26.114826,0.01384 -47.285321,21.188421 -47.279523,47.303771 0,7.12125 1.877056,15.13205 5.245502,21.7005 6.085112,-5.6661 22.063753,-23.69104 23.894414,-25.7948 2.784412,-3.18445 3.98965,-1.15463 5.480119,-2.93349 0.806392,-0.98183 1.272327,-1.35602 1.623724,-1.5569 0.576916,-0.33597 1.234102,-1.14685 1.556236,-1.38976 0.326354,-0.24846 1.06513,-1.22791 1.636646,-1.72258 0.580473,-0.48756 1.719675,-1.23055 2.867451,-2.21264 1.146848,-0.97761 3.104303,-3.26682 5.228763,-3.26682 2.529629,-10e-4 3.594096,1.71243 3.812238,1.92068"
           id="path297"
           style="stroke-width:0.13180651" />
        <path
           inkscape:connector-curvature="0"
           d="m 72.645601,114.33864 c -0.705429,0 -1.493105,0.72309 -1.990937,1.31451 -0.586935,0.71122 -1.550707,2.07872 -1.701358,3.07188 -0.09978,0.52327 0.125478,0.74009 0.436937,0.74009 0.617512,0 1.493762,-1.11692 1.978413,-2.07911 0.503636,-1.05683 0.754991,-1.64468 1.377644,-2.98371 0.03348,-0.0637 -0.03253,-0.0637 -0.100699,-0.0637"
           id="path299"
           style="stroke-width:0.13180651" />
        <path
           inkscape:connector-curvature="0"
           d="m 61.518627,114.33864 c -0.711491,0 -1.496004,0.72309 -1.98738,1.31451 -0.597874,0.71122 -1.565861,2.07872 -1.716118,3.07188 -0.09754,0.52327 0.150257,0.74009 0.436015,0.74009 0.62621,0 1.490205,-1.11692 1.989352,-2.07911 0.497833,-1.05683 0.754593,-1.64468 1.365649,-2.98371 0.02954,-0.0637 -0.03059,-0.0637 -0.08752,-0.0637"
           id="path301"
           style="stroke-width:0.13180651" />
        <path
           transform="matrix(0.13180651,0,0,0.13180651,8.4973486,83.312971)"
           d="m 890.596,615.067 -15.152,-14.34 9.258,-19.117 -19.165,9.986 -15.527,-14.991 3.96,20.821 -18.716,9.951 21.294,2.842 4.072,21.113 9.277,-19.194 z"
           id="polygon303"
           inkscape:connector-curvature="0" />
        <path
           id="path305"
           d="m 52.202672,146.13723 c -0.220115,-0.17439 -2.869164,2.52738 -4.615202,4.41301 -0.613034,0.65455 -1.010431,1.27233 -1.242148,1.56784 0,0 -0.776865,1.26652 -1.175842,1.7956 -0.413478,0.52841 -1.442889,2.04142 -1.88536,2.68951 -0.16028,0.22328 -0.568617,1.17453 -1.356686,2.16242 -0.387116,0.49361 -0.790969,1.1334 -1.558479,2.12129 -1.022028,1.31873 -1.810366,2.40771 -1.627679,2.54413 0.104919,0.0772 1.61924,-1.74406 3.234928,-3.71154 0.676032,-0.82063 1.410722,-1.66498 2.024678,-2.46623 0.296697,-0.38422 0.99435,-1.04127 1.222769,-1.37026 0.395419,-0.58562 0.827613,-1.03297 0.997907,-1.17387 0.909726,-0.73943 1.414548,-0.79545 1.694238,-1.20485 0.148285,-0.20785 1.927277,-2.90448 2.575899,-3.99729 0.599454,-1.03033 2.065273,-3.05251 1.710977,-3.36976"
           inkscape:connector-curvature="0"
           style="stroke-width:0.13180651" />
        <path
           transform="matrix(0.13180651,0,0,0.13180651,8.4973486,83.312971)"
           d="m 918.774,537.221 -17.592,-11.265 5.39,-20.488 -16.865,13.457 -18.027,-11.753 7.837,19.814 -16.573,13.291 21.47,-1.259 8.106,19.843 5.395,-20.6 z"
           id="polygon309"
           inkscape:connector-curvature="0" />
        <path
           inkscape:connector-curvature="0"
           d="m 63.358644,140.05014 c -0.736927,0.72599 -2.236099,3.31572 -2.795087,3.60728 -1.28617,0.62884 -1.842259,2.12445 -2.222653,2.71653 -0.273499,0.44089 -0.621996,1.14501 -1.232788,2.03826 -0.534472,0.77686 -1.149484,1.91857 -1.370525,2.32915 -0.225256,0.41189 -0.306975,0.79479 0.101626,0.79479 0.422833,0 0.09464,0.67129 -0.408337,1.4127 -0.287074,0.43378 -0.992372,2.50736 -1.20221,3.07057 -0.2677,0.69699 -0.231055,1.5851 -0.321736,1.87547 -0.102941,0.28312 -1.453829,3.16587 -1.805883,3.80104 -0.219193,0.40926 -0.158696,0.57217 -0.242263,0.79163 -0.122972,0.28259 0.02924,0.35456 0.242263,0.15645 0.260711,-0.25609 1.70228,-2.45845 2.144492,-2.72167 0.44155,-0.2735 0.838289,-0.67959 0.898393,-1.62438 0.06537,-0.94282 0.676037,-1.19575 1.144607,-1.75566 0.471474,-0.54964 1.102168,-1.28591 1.444468,-2.05434 0.311195,-0.79031 0.713733,-0.18796 1.457386,-1.37659 0.733106,-1.18995 2.38675,-4.13253 2.755149,-4.70009 0.370775,-0.57217 0.10848,-1.39266 0.06314,-2.06778 -0.01988,-0.35719 0.02451,-1.24465 0.245158,-2.17467 0.201797,-0.83737 0.593396,-1.68818 0.811533,-2.23966 0.158695,-0.34626 0.667338,-1.40242 0.63557,-1.82526 -2.64e-4,-0.0737 -0.185054,-0.20047 -0.3423,-0.0538"
           id="path311"
           style="stroke-width:0.13180651" />
        <path
           inkscape:connector-curvature="0"
           d="m 111.36958,171.74713 c 0,-2.05765 1.6873,-3.75402 3.7631,-3.75402 2.08058,0 3.77716,1.69637 3.77716,3.75402 0,2.09417 -1.69658,3.77694 -3.77716,3.77694 -2.0758,0 -3.7631,-1.68277 -3.7631,-3.77694 m 3.7631,4.46736 c 2.4693,0 4.46283,-1.99829 4.46283,-4.46736 0,-2.45091 -1.99353,-4.44469 -4.46283,-4.44469 -2.45547,0 -4.46281,1.99353 -4.46281,4.44469 0,2.46932 2.00734,4.46736 4.46281,4.46736"
           id="path628"
           style="stroke-width:0.18032353" />
        <path
           inkscape:connector-curvature="0"
           d="m 113.33568,169.25042 h 2.73903 c 0.49367,0.0184 0.98782,0.2516 1.134,0.78176 0.0641,0.21488 0.16456,0.56712 0.0455,0.99235 -0.11876,0.43429 -0.34748,0.58524 -0.67206,0.7727 0.16934,0.12803 0.4939,0.24253 0.55329,0.6811 0.0226,0.20583 0.0365,0.85523 0.041,1.10684 0,0.27879 0.0825,0.32911 0.19675,0.40233 v 0.18768 h -1.09753 c -0.0778,-0.1555 -0.11903,-0.31122 -0.13736,-0.45741 -0.009,-0.24683 -0.009,-0.64011 0,-1.00142 -0.009,-0.32911 -0.24661,-0.48007 -0.60815,-0.48007 h -1.18432 v 1.9389 h -1.01049 m 1.01073,-2.79841 h 1.38561 c 0.23777,0 0.65846,-0.23777 0.59933,-0.71808 0,-0.35225 -0.16027,-0.55783 -0.6084,-0.55783 h -1.37631 v 1.27591 z"
           id="path630"
           style="stroke-width:0.18032353" />
      </g>
    </g>
  </g>
</svg>
